<?xml version="1.0" encoding="UTF-8" standalone="no"?>
<!-- Generator: Adobe Illustrator 12.0.1, SVG Export Plug-In . SVG Version: 6.00 Build 51448)  -->

<svg
   xmlns:dc="http://purl.org/dc/elements/1.1/"
   xmlns:cc="http://creativecommons.org/ns#"
   xmlns:rdf="http://www.w3.org/1999/02/22-rdf-syntax-ns#"
   xmlns:svg="http://www.w3.org/2000/svg"
   xmlns="http://www.w3.org/2000/svg"
   xmlns:sodipodi="http://sodipodi.sourceforge.net/DTD/sodipodi-0.dtd"
   xmlns:inkscape="http://www.inkscape.org/namespaces/inkscape"
   version="1.1"
   id="Layer_1"
   width="261"
   height="261"
   viewBox="0 0 260.99999 260.99998"
   style="overflow:visible"
   xml:space="preserve"
   sodipodi:version="0.32"
   inkscape:version="0.47 r22583"
   sodipodi:docname="mescaline_layers.svg"
   inkscape:export-filename="/Users/sk/projects/mescaline/repos/doc/logo/mescaline_layers.icns.png"
   inkscape:export-xdpi="51.84"
   inkscape:export-ydpi="51.84"><metadata
   id="metadata100"><rdf:RDF><cc:Work
       rdf:about=""><dc:format>image/svg+xml</dc:format><dc:type
         rdf:resource="http://purl.org/dc/dcmitype/StillImage" /><dc:title></dc:title></cc:Work></rdf:RDF></metadata><defs
   id="defs98"><inkscape:perspective
     sodipodi:type="inkscape:persp3d"
     inkscape:vp_x="0 : 80.501503 : 1"
     inkscape:vp_y="0 : 1000 : 0"
     inkscape:vp_z="274.129 : 80.501503 : 1"
     inkscape:persp3d-origin="137.0645 : 53.667669 : 1"
     id="perspective53" /></defs><sodipodi:namedview
   inkscape:window-height="810"
   inkscape:window-width="1440"
   inkscape:pageshadow="2"
   inkscape:pageopacity="0.0"
   guidetolerance="10.0"
   gridtolerance="10.0"
   objecttolerance="10.0"
   borderopacity="1.0"
   bordercolor="#666666"
   pagecolor="#ffffff"
   id="base"
   inkscape:zoom="1.6601328"
   inkscape:cx="51.41351"
   inkscape:cy="127.59044"
   inkscape:window-x="0"
   inkscape:window-y="0"
   inkscape:current-layer="layer1"
   showgrid="false"
   inkscape:window-maximized="0" />
































<g
   inkscape:groupmode="layer"
   id="layer1"
   inkscape:label="Circle"
   style="display:inline"
   transform="translate(-6.853225,104.02011)"><path
     sodipodi:type="arc"
     style="fill:#84ee3d;fill-opacity:1;stroke:#000000;stroke-width:0.5;stroke-miterlimit:4;stroke-opacity:1;stroke-dasharray:none"
     id="path5135"
     sodipodi:cx="1.2778016"
     sodipodi:cy="11.500217"
     sodipodi:rx="86.890511"
     sodipodi:ry="86.890511"
     d="m 88.168312,11.500217 a 86.890511,86.890511 0 1 1 -173.781021,0 86.890511,86.890511 0 1 1 173.781021,0 z"
     transform="translate(135.36076,2.5717633)" /></g><g
   inkscape:groupmode="layer"
   id="layer2"
   inkscape:label="Molecule"
   style="display:inline"
   transform="translate(-6.853225,104.02011)"><g
     transform="translate(0,-40.02262)"
     style="overflow:visible"
     id="g5086"><g
       transform="matrix(0.95,0,0,0.95,6.853225,4.025125)"
       id="g3">
	<path
   id="path5"
   d="m 233.453,76.984 0,-17.187 2.34,0 9.004,13.488 0,-13.488 2.188,0 0,17.188 -2.34,0 -9.004,-13.489 0,13.489 -2.188,0 0,-0.001 z" />
	<path
   id="path7"
   d="m 250.895,76.984 0,-17.187 2.281,0 0,7.063 8.891,0 0,-7.063 2.281,0 0,17.188 -2.281,0 0,-8.094 -8.891,0 0,8.094 -2.281,0 0,-0.001 z" />
</g><g
       transform="matrix(0.95,0,0,0.95,6.853225,4.025125)"
       id="g9">
	<path
   id="path11"
   d="m 274.129,79.969 0,1.516 -8.531,0 c -0.012,-0.381 0.051,-0.747 0.186,-1.1 0.219,-0.58 0.568,-1.15 1.049,-1.712 0.481,-0.562 1.17,-1.211 2.07,-1.948 1.395,-1.152 2.342,-2.063 2.84,-2.733 0.498,-0.67 0.746,-1.304 0.746,-1.903 0,-0.626 -0.225,-1.154 -0.675,-1.584 -0.45,-0.43 -1.036,-0.645 -1.761,-0.645 -0.766,0 -1.377,0.229 -1.836,0.688 -0.459,0.458 -0.691,1.094 -0.697,1.905 l -1.625,-0.172 c 0.111,-1.215 0.531,-2.142 1.26,-2.779 0.729,-0.637 1.707,-0.955 2.934,-0.955 1.239,0 2.221,0.343 2.942,1.029 0.722,0.686 1.083,1.535 1.083,2.55 0,0.517 -0.105,1.023 -0.316,1.521 -0.212,0.498 -0.563,1.022 -1.053,1.574 -0.492,0.551 -1.305,1.308 -2.441,2.269 -0.95,0.797 -1.561,1.338 -1.832,1.621 -0.271,0.285 -0.496,0.57 -0.674,0.857 l 6.331,0 0,10e-4 z" />
</g><path
       id="polygon13"
       d="m 235.92198,58.729925 -1.615,0 0,-27.7875 1.615,-0.9025 0,28.69 z" /><path
       id="polygon15"
       d="m 202.48198,12.607425 0,-1.9 33.44,19.3325 -1.615,0.9025 -31.825,-18.335 z" /><path
       id="polygon17"
       d="m 170.65698,30.942425 -0.80845,-0.475 0,-0.9025 32.63345,-18.8575 0,1.9 -31.825,18.335 z" /><path
       id="polygon19"
       d="m 137.21698,12.559925 0,-1.8525 32.63155,18.8575 0,0.9025 -0.80655,0.475 -31.825,-18.3825 z" /><path
       id="polygon21"
       d="m 136.78948,18.877425 0.8075,-1.425 27.02655,15.58 -0.80655,1.425 -27.0275,-15.58 z" /><path
       id="polygon23"
       d="m 105.39198,30.942425 -0.8075,-0.475 0,-0.9025 32.6325,-18.8575 0,1.8525 -31.825,18.3825 z" /><path
       id="polygon25"
       d="m 105.39198,67.707425 -0.8075,0.475 -0.8075,-0.475 0,-36.765 0.8075,-0.475 0.8075,0.475 0,36.765 z" /><path
       id="rect27"
       d="m 109.42948,33.744925 1.615,0 0,31.16 -1.615,0 0,-31.16 z" /><path
       id="polygon29"
       d="m 137.21698,86.089925 0,0.95 -0.8075,0.475 -31.825,-18.3825 0,-0.95 0.8075,-0.475 31.825,18.3825 z" /><path
       id="polygon31"
       d="m 169.04198,67.707425 1.615,0.95 -32.6325,18.8575 -0.8075,-0.475 0,-0.95 31.825,-18.3825 z" /><path
       id="polygon33"
       d="m 163.81698,64.239925 0.80655,1.3775 -27.02655,15.58 -0.8075,-1.3775 27.0275,-15.58 z" /><path
       id="polygon35"
       d="m 169.04198,30.942425 0.80655,-0.475 0.80845,0.475 0,37.715 -1.615,-0.95 0,-36.765 z" /><g
       transform="matrix(0.95,0,0,0.95,6.853225,4.025125)"
       id="g37">
	<path
   id="path39"
   d="m 60.281,88.469 c 0,-2.852 0.766,-5.085 2.298,-6.699 1.532,-1.613 3.51,-2.42 5.933,-2.42 1.587,0 3.017,0.379 4.291,1.137 1.274,0.758 2.245,1.815 2.914,3.171 0.668,1.356 1.002,2.894 1.002,4.612 0,1.742 -0.352,3.302 -1.055,4.677 -0.704,1.376 -1.7,2.417 -2.99,3.124 -1.29,0.707 -2.681,1.061 -4.174,1.061 -1.618,0 -3.064,-0.391 -4.338,-1.172 -1.274,-0.781 -2.239,-1.848 -2.896,-3.2 -0.657,-1.353 -0.985,-2.783 -0.985,-4.291 z m 2.344,0.029 c 0,2.07 0.557,3.701 1.671,4.893 1.114,1.192 2.512,1.787 4.192,1.787 1.712,0 3.121,-0.602 4.228,-1.805 1.106,-1.203 1.659,-2.91 1.659,-5.121 0,-1.398 -0.236,-2.619 -0.709,-3.662 -0.473,-1.043 -1.165,-1.852 -2.076,-2.426 -0.911,-0.574 -1.933,-0.861 -3.066,-0.861 -1.61,0 -2.996,0.553 -4.157,1.658 -1.161,1.105 -1.742,2.951 -1.742,5.537 z" />
</g><path
       id="polygon41"
       d="m 80.881975,82.813375 -0.8075,-1.425 23.702505,-13.68095 0.8075,0.475 0,0.95 -23.702505,13.68095 z" /><g
       transform="matrix(0.95,0,0,0.95,6.853225,4.025125)"
       id="g43">
	<path
   id="path45"
   d="m 60.281,9.119 c 0,-2.852 0.766,-5.085 2.298,-6.699 C 64.111,0.807 66.089,0 68.512,0 c 1.587,0 3.017,0.379 4.291,1.137 1.274,0.758 2.245,1.815 2.914,3.171 0.668,1.356 1.002,2.894 1.002,4.612 0,1.742 -0.352,3.302 -1.055,4.677 -0.704,1.376 -1.7,2.417 -2.99,3.124 -1.29,0.707 -2.681,1.061 -4.174,1.061 -1.618,0 -3.064,-0.391 -4.338,-1.172 -1.274,-0.781 -2.239,-1.848 -2.896,-3.2 -0.657,-1.352 -0.985,-2.783 -0.985,-4.291 z m 2.344,0.029 c 0,2.07 0.557,3.701 1.671,4.893 1.114,1.192 2.512,1.787 4.192,1.787 1.712,0 3.121,-0.602 4.228,-1.805 1.106,-1.203 1.659,-2.91 1.659,-5.121 0,-1.398 -0.236,-2.619 -0.709,-3.662 C 73.193,4.197 72.5,3.389 71.59,2.814 70.68,2.239 69.657,1.953 68.524,1.953 c -1.61,0 -2.996,0.553 -4.157,1.658 -1.161,1.105 -1.742,2.952 -1.742,5.537 z" />
</g><path
       id="polygon47"
       d="m 80.786975,17.689925 0.8075,-1.425 22.990005,13.3 0,0.9025 -0.8075,0.475 -22.990005,-13.2525 z" /><g
       transform="matrix(0.95,0,0,0.95,6.853225,4.025125)"
       id="g49">
	<path
   id="path51"
   d="m 128.981,128.119 c 0,-2.852 0.766,-5.085 2.298,-6.699 1.532,-1.613 3.51,-2.42 5.933,-2.42 1.587,0 3.017,0.379 4.291,1.137 1.274,0.758 2.246,1.815 2.914,3.171 0.668,1.356 1.002,2.894 1.002,4.612 0,1.742 -0.352,3.302 -1.055,4.677 -0.703,1.376 -1.7,2.417 -2.99,3.124 -1.289,0.707 -2.681,1.061 -4.173,1.061 -1.618,0 -3.064,-0.391 -4.338,-1.172 -1.274,-0.781 -2.239,-1.848 -2.896,-3.2 -0.658,-1.352 -0.986,-2.783 -0.986,-4.291 z m 2.344,0.029 c 0,2.07 0.557,3.701 1.671,4.893 1.114,1.192 2.512,1.787 4.192,1.787 1.712,0 3.121,-0.602 4.228,-1.805 1.105,-1.203 1.658,-2.91 1.658,-5.121 0,-1.398 -0.236,-2.619 -0.709,-3.662 -0.473,-1.043 -1.165,-1.852 -2.076,-2.426 -0.91,-0.574 -1.932,-0.861 -3.066,-0.861 -1.61,0 -2.996,0.553 -4.157,1.658 -1.161,1.105 -1.741,2.952 -1.741,5.537 z" />
</g><path
       id="polygon53"
       d="m 138.02448,114.96993 -1.615,0 0,-27.455005 0.8075,-0.475 0.8075,0.475 0,27.455005 z" /><g
       transform="matrix(0.95,0,0,0.95,6.853225,4.025125)"
       id="g55">
	<path
   id="path57"
   d="m 0,37.284 0,-17.187 2.281,0 0,7.063 8.891,0 0,-7.063 2.281,0 0,17.188 -2.281,0 0,-8.095 -8.891,0 0,8.094 -2.281,0 z" />
</g><g
       transform="matrix(0.95,0,0,0.95,6.853225,4.025125)"
       id="g59">
	<path
   id="path61"
   d="m 14.461,38.378 1.578,-0.219 c 0.183,0.896 0.492,1.543 0.928,1.938 0.437,0.396 0.972,0.594 1.607,0.594 0.753,0 1.386,-0.258 1.899,-0.773 0.513,-0.515 0.769,-1.153 0.769,-1.914 0,-0.727 -0.238,-1.325 -0.716,-1.797 -0.477,-0.471 -1.083,-0.707 -1.819,-0.707 -0.301,0 -0.675,0.059 -1.122,0.176 l 0.177,-1.391 c 0.106,0.012 0.191,0.018 0.256,0.018 0.674,0 1.281,-0.176 1.821,-0.526 0.54,-0.351 0.81,-0.892 0.81,-1.623 0,-0.579 -0.197,-1.059 -0.591,-1.438 -0.394,-0.38 -0.902,-0.57 -1.525,-0.57 -0.617,0 -1.132,0.194 -1.543,0.582 -0.412,0.389 -0.676,0.971 -0.793,1.746 l -1.578,-0.281 c 0.193,-1.062 0.634,-1.885 1.32,-2.469 0.686,-0.583 1.54,-0.875 2.561,-0.875 0.704,0 1.353,0.15 1.945,0.452 0.592,0.301 1.045,0.712 1.36,1.232 0.313,0.521 0.471,1.073 0.471,1.658 0,0.556 -0.149,1.062 -0.448,1.518 -0.299,0.456 -0.741,0.818 -1.327,1.088 0.762,0.176 1.354,0.54 1.779,1.095 0.424,0.553 0.637,1.246 0.637,2.078 0,1.125 -0.411,2.079 -1.233,2.861 -0.822,0.783 -1.861,1.174 -3.117,1.174 -1.133,0 -2.074,-0.336 -2.822,-1.01 -0.751,-0.674 -1.178,-1.547 -1.284,-2.617 z" />
</g><g
       transform="matrix(0.95,0,0,0.95,6.853225,4.025125)"
       id="g63">
	<path
   id="path65"
   d="m 37.039,31.257 2.281,0.574 c -0.476,1.87 -1.333,3.296 -2.569,4.277 -1.237,0.982 -2.75,1.473 -4.537,1.473 -1.85,0 -3.354,-0.377 -4.513,-1.132 -1.159,-0.755 -2.041,-1.847 -2.646,-3.278 -0.605,-1.431 -0.907,-2.967 -0.907,-4.609 0,-1.791 0.341,-3.353 1.024,-4.686 0.683,-1.334 1.654,-2.346 2.915,-3.038 1.26,-0.692 2.646,-1.038 4.16,-1.038 1.717,0 3.16,0.438 4.33,1.314 1.171,0.877 1.986,2.109 2.446,3.697 l -2.234,0.527 c -0.398,-1.25 -0.975,-2.16 -1.731,-2.73 -0.757,-0.57 -1.709,-0.855 -2.855,-0.855 -1.318,0 -2.42,0.316 -3.306,0.949 -0.885,0.633 -1.507,1.482 -1.866,2.549 -0.359,1.067 -0.538,2.166 -0.538,3.299 0,1.461 0.212,2.736 0.637,3.826 0.425,1.09 1.085,1.904 1.982,2.443 0.897,0.539 1.867,0.809 2.912,0.809 1.271,0 2.346,-0.367 3.227,-1.102 0.881,-0.735 1.476,-1.824 1.788,-3.269 z" />
</g><path
       id="polygon67"
       d="m 48.201975,26.239925 -0.8075,-1.3775 14.82,-8.55 0.8075,1.3775 -14.82,8.55 z" /><g
       transform="matrix(0.95,0,0,0.95,6.853225,4.025125)"
       id="g69">
	<path
   id="path71"
   d="m 0,76.984 0,-17.187 2.281,0 0,7.063 8.891,0 0,-7.063 2.281,0 0,17.188 -2.281,0 0,-8.094 -8.891,0 0,8.094 -2.281,0 0,-0.001 z" />
</g><g
       transform="matrix(0.95,0,0,0.95,6.853225,4.025125)"
       id="g73">
	<path
   id="path75"
   d="m 14.461,78.078 1.578,-0.219 c 0.183,0.896 0.492,1.543 0.928,1.938 0.437,0.396 0.972,0.594 1.607,0.594 0.753,0 1.386,-0.258 1.899,-0.773 0.513,-0.515 0.769,-1.153 0.769,-1.914 0,-0.727 -0.238,-1.325 -0.716,-1.797 -0.477,-0.471 -1.083,-0.707 -1.819,-0.707 -0.301,0 -0.675,0.059 -1.122,0.176 l 0.177,-1.391 c 0.106,0.012 0.191,0.018 0.256,0.018 0.674,0 1.281,-0.176 1.821,-0.526 0.54,-0.351 0.81,-0.892 0.81,-1.623 0,-0.579 -0.197,-1.059 -0.591,-1.438 -0.394,-0.38 -0.902,-0.57 -1.525,-0.57 -0.617,0 -1.132,0.194 -1.543,0.582 -0.412,0.389 -0.676,0.971 -0.793,1.746 l -1.578,-0.281 c 0.193,-1.062 0.634,-1.885 1.32,-2.469 0.686,-0.583 1.54,-0.875 2.561,-0.875 0.704,0 1.353,0.15 1.945,0.452 0.592,0.301 1.045,0.712 1.36,1.232 0.313,0.521 0.471,1.073 0.471,1.658 0,0.556 -0.149,1.062 -0.448,1.518 -0.299,0.456 -0.741,0.818 -1.327,1.088 0.762,0.176 1.354,0.54 1.779,1.095 0.424,0.553 0.637,1.246 0.637,2.078 0,1.125 -0.411,2.079 -1.233,2.861 -0.822,0.783 -1.861,1.174 -3.117,1.174 -1.133,0 -2.074,-0.336 -2.822,-1.01 -0.751,-0.674 -1.178,-1.547 -1.284,-2.617 z" />
</g><g
       transform="matrix(0.95,0,0,0.95,6.853225,4.025125)"
       id="g77">
	<path
   id="path79"
   d="m 37.039,70.957 2.281,0.574 c -0.476,1.87 -1.333,3.296 -2.569,4.277 -1.237,0.982 -2.75,1.473 -4.537,1.473 -1.85,0 -3.354,-0.377 -4.513,-1.132 -1.159,-0.755 -2.041,-1.847 -2.646,-3.278 -0.605,-1.431 -0.907,-2.967 -0.907,-4.609 0,-1.791 0.341,-3.353 1.024,-4.686 0.683,-1.334 1.654,-2.346 2.915,-3.038 1.26,-0.692 2.646,-1.038 4.16,-1.038 1.717,0 3.16,0.438 4.33,1.314 1.171,0.877 1.986,2.109 2.446,3.697 l -2.234,0.527 c -0.398,-1.25 -0.975,-2.16 -1.731,-2.73 -0.757,-0.57 -1.709,-0.855 -2.855,-0.855 -1.318,0 -2.42,0.316 -3.306,0.949 -0.885,0.633 -1.507,1.482 -1.866,2.549 -0.359,1.067 -0.538,2.166 -0.538,3.299 0,1.461 0.212,2.736 0.637,3.826 0.425,1.09 1.085,1.904 1.982,2.443 0.897,0.539 1.867,0.809 2.912,0.809 1.271,0 2.346,-0.367 3.227,-1.102 0.881,-0.735 1.476,-1.824 1.788,-3.269 z" />
</g><path
       id="polygon81"
       d="m 48.154475,74.214925 0.8075,-1.3775 14.82,8.55095 -0.8075,1.37655 -14.82,-8.55 z" /><g
       transform="matrix(0.95,0,0,0.95,6.853225,4.025125)"
       id="g83">
	<path
   id="path85"
   d="m 68.75,156.284 0,-17.188 2.281,0 0,7.063 8.891,0 0,-7.063 2.281,0 0,17.188 -2.281,0 0,-8.094 -8.891,0 0,8.094 -2.281,0 z" />
</g><g
       transform="matrix(0.95,0,0,0.95,6.853225,4.025125)"
       id="g87">
	<path
   id="path89"
   d="m 83.211,157.378 1.578,-0.219 c 0.183,0.896 0.492,1.543 0.928,1.938 0.437,0.396 0.972,0.594 1.607,0.594 0.753,0 1.386,-0.258 1.899,-0.773 0.513,-0.515 0.769,-1.153 0.769,-1.914 0,-0.727 -0.238,-1.325 -0.716,-1.797 -0.477,-0.471 -1.083,-0.707 -1.819,-0.707 -0.301,0 -0.675,0.059 -1.122,0.176 l 0.177,-1.391 c 0.106,0.012 0.191,0.018 0.256,0.018 0.674,0 1.281,-0.176 1.821,-0.526 0.54,-0.351 0.81,-0.892 0.81,-1.623 0,-0.579 -0.197,-1.059 -0.591,-1.438 -0.394,-0.38 -0.902,-0.57 -1.525,-0.57 -0.617,0 -1.132,0.194 -1.543,0.582 -0.412,0.389 -0.676,0.971 -0.793,1.746 l -1.578,-0.281 c 0.193,-1.062 0.634,-1.885 1.32,-2.469 0.686,-0.583 1.54,-0.875 2.561,-0.875 0.704,0 1.353,0.15 1.945,0.452 0.592,0.301 1.045,0.712 1.36,1.232 0.313,0.521 0.471,1.073 0.471,1.658 0,0.556 -0.149,1.062 -0.448,1.518 -0.299,0.456 -0.741,0.818 -1.327,1.088 0.762,0.176 1.354,0.54 1.779,1.095 0.424,0.553 0.637,1.246 0.637,2.078 0,1.125 -0.411,2.079 -1.233,2.861 -0.822,0.783 -1.861,1.174 -3.117,1.174 -1.133,0 -2.074,-0.336 -2.822,-1.01 -0.751,-0.674 -1.178,-1.547 -1.284,-2.617 z" />
</g><g
       transform="matrix(0.95,0,0,0.95,6.853225,4.025125)"
       id="g91">
	<path
   id="path93"
   d="m 105.789,150.257 2.281,0.574 c -0.476,1.87 -1.333,3.296 -2.569,4.277 -1.237,0.982 -2.75,1.473 -4.537,1.473 -1.85,0 -3.354,-0.377 -4.513,-1.132 -1.159,-0.755 -2.041,-1.847 -2.646,-3.278 -0.605,-1.431 -0.907,-2.967 -0.907,-4.609 0,-1.791 0.341,-3.353 1.024,-4.686 0.683,-1.334 1.654,-2.346 2.915,-3.038 1.26,-0.692 2.646,-1.038 4.16,-1.038 1.717,0 3.16,0.438 4.33,1.314 1.171,0.877 1.986,2.109 2.446,3.697 l -2.234,0.527 c -0.398,-1.25 -0.975,-2.16 -1.731,-2.73 -0.757,-0.57 -1.709,-0.855 -2.855,-0.855 -1.318,0 -2.42,0.316 -3.306,0.949 -0.885,0.633 -1.507,1.482 -1.866,2.549 -0.359,1.067 -0.538,2.166 -0.538,3.299 0,1.461 0.212,2.736 0.637,3.826 0.425,1.09 1.085,1.904 1.982,2.443 0.897,0.539 1.867,0.809 2.912,0.809 1.271,0 2.346,-0.367 3.227,-1.102 0.881,-0.735 1.476,-1.824 1.788,-3.269 z" />
</g><path
       id="polygon95"
       d="m 113.56198,139.28992 -0.8075,-1.37749 14.7725,-8.55 0.8075,1.3775 -14.7725,8.54999 z" /></g></g></svg>