<?xml version="1.0" encoding="UTF-8" standalone="no"?>
<!-- Generator: Adobe Illustrator 12.0.1, SVG Export Plug-In . SVG Version: 6.00 Build 51448)  -->
<svg
   xmlns:dc="http://purl.org/dc/elements/1.1/"
   xmlns:cc="http://web.resource.org/cc/"
   xmlns:rdf="http://www.w3.org/1999/02/22-rdf-syntax-ns#"
   xmlns:svg="http://www.w3.org/2000/svg"
   xmlns="http://www.w3.org/2000/svg"
   xmlns:sodipodi="http://sodipodi.sourceforge.net/DTD/sodipodi-0.dtd"
   xmlns:inkscape="http://www.inkscape.org/namespaces/inkscape"
   version="1.1"
   id="Layer_1"
   width="274.129"
   height="161.003"
   viewBox="0 0 274.129 161.003"
   style="overflow:visible;enable-background:new 0 0 274.129 161.003;"
   xml:space="preserve"
   sodipodi:version="0.32"
   inkscape:version="0.44.1"
   sodipodi:docname="Mescalin - Mescaline.svg"
   sodipodi:docbase="E:\Eigene Dateien"><metadata
   id="metadata100"><rdf:RDF><cc:Work
       rdf:about=""><dc:format>image/svg+xml</dc:format><dc:type
         rdf:resource="http://purl.org/dc/dcmitype/StillImage" /></cc:Work></rdf:RDF></metadata><defs
   id="defs98" /><sodipodi:namedview
   inkscape:window-height="573"
   inkscape:window-width="925"
   inkscape:pageshadow="2"
   inkscape:pageopacity="0.0"
   guidetolerance="10.0"
   gridtolerance="10.0"
   objecttolerance="10.0"
   borderopacity="1.0"
   bordercolor="#666666"
   pagecolor="#ffffff"
   id="base"
   inkscape:zoom="2.3477823"
   inkscape:cx="137.0645"
   inkscape:cy="80.501503"
   inkscape:window-x="44"
   inkscape:window-y="44"
   inkscape:current-layer="Layer_1" />
<g
   id="g3"
   transform="matrix(0.95,0,0,0.95,6.853225,4.025125)">
	<path
   d="M 233.453,76.984 L 233.453,59.797 L 235.793,59.797 L 244.797,73.285 L 244.797,59.797 L 246.985,59.797 L 246.985,76.985 L 244.645,76.985 L 235.641,63.496 L 235.641,76.985 L 233.453,76.985 L 233.453,76.984 z "
   id="path5" />
	<path
   d="M 250.895,76.984 L 250.895,59.797 L 253.176,59.797 L 253.176,66.86 L 262.067,66.86 L 262.067,59.797 L 264.348,59.797 L 264.348,76.985 L 262.067,76.985 L 262.067,68.891 L 253.176,68.891 L 253.176,76.985 L 250.895,76.985 L 250.895,76.984 z "
   id="path7" />
</g>
<g
   id="g9"
   transform="matrix(0.95,0,0,0.95,6.853225,4.025125)">
	<path
   d="M 274.129,79.969 L 274.129,81.485 L 265.598,81.485 C 265.586,81.104 265.649,80.738 265.784,80.385 C 266.003,79.805 266.352,79.235 266.833,78.673 C 267.314,78.111 268.003,77.462 268.903,76.725 C 270.298,75.573 271.245,74.662 271.743,73.992 C 272.241,73.322 272.489,72.688 272.489,72.089 C 272.489,71.463 272.264,70.935 271.814,70.505 C 271.364,70.075 270.778,69.86 270.053,69.86 C 269.287,69.86 268.676,70.089 268.217,70.548 C 267.758,71.006 267.526,71.642 267.52,72.453 L 265.895,72.281 C 266.006,71.066 266.426,70.139 267.155,69.502 C 267.884,68.865 268.862,68.547 270.089,68.547 C 271.328,68.547 272.31,68.89 273.031,69.576 C 273.753,70.262 274.114,71.111 274.114,72.126 C 274.114,72.643 274.009,73.149 273.798,73.647 C 273.586,74.145 273.235,74.669 272.745,75.221 C 272.253,75.772 271.44,76.529 270.304,77.49 C 269.354,78.287 268.743,78.828 268.472,79.111 C 268.201,79.396 267.976,79.681 267.798,79.968 L 274.129,79.968 L 274.129,79.969 z "
   id="path11" />
</g>
<path
   d="M 235.92198,58.729925 L 234.30698,58.729925 L 234.30698,30.942425 L 235.92198,30.039925 L 235.92198,58.729925 z "
   id="polygon13" />
<path
   d="M 202.48198,12.607425 L 202.48198,10.707425 L 235.92198,30.039925 L 234.30698,30.942425 L 202.48198,12.607425 z "
   id="polygon15" />
<path
   d="M 170.65698,30.942425 L 169.84853,30.467425 L 169.84853,29.564925 L 202.48198,10.707425 L 202.48198,12.607425 L 170.65698,30.942425 z "
   id="polygon17" />
<path
   d="M 137.21698,12.559925 L 137.21698,10.707425 L 169.84853,29.564925 L 169.84853,30.467425 L 169.04198,30.942425 L 137.21698,12.559925 z "
   id="polygon19" />
<path
   d="M 136.78948,18.877425 L 137.59698,17.452425 L 164.62353,33.032425 L 163.81698,34.457425 L 136.78948,18.877425 z "
   id="polygon21" />
<path
   d="M 105.39198,30.942425 L 104.58448,30.467425 L 104.58448,29.564925 L 137.21698,10.707425 L 137.21698,12.559925 L 105.39198,30.942425 z "
   id="polygon23" />
<path
   d="M 105.39198,67.707425 L 104.58448,68.182425 L 103.77698,67.707425 L 103.77698,30.942425 L 104.58448,30.467425 L 105.39198,30.942425 L 105.39198,67.707425 z "
   id="polygon25" />
<path
   d="M 109.42948,33.744925 L 111.04448,33.744925 L 111.04448,64.904925 L 109.42948,64.904925 L 109.42948,33.744925 z "
   id="rect27" />
<path
   d="M 137.21698,86.089925 L 137.21698,87.039925 L 136.40948,87.514925 L 104.58448,69.132425 L 104.58448,68.182425 L 105.39198,67.707425 L 137.21698,86.089925 z "
   id="polygon29" />
<path
   d="M 169.04198,67.707425 L 170.65698,68.657425 L 138.02448,87.514925 L 137.21698,87.039925 L 137.21698,86.089925 L 169.04198,67.707425 z "
   id="polygon31" />
<path
   d="M 163.81698,64.239925 L 164.62353,65.617425 L 137.59698,81.197425 L 136.78948,79.819925 L 163.81698,64.239925 z "
   id="polygon33" />
<path
   d="M 169.04198,30.942425 L 169.84853,30.467425 L 170.65698,30.942425 L 170.65698,68.657425 L 169.04198,67.707425 L 169.04198,30.942425 z "
   id="polygon35" />
<g
   id="g37"
   transform="matrix(0.95,0,0,0.95,6.853225,4.025125)">
	<path
   d="M 60.281,88.469 C 60.281,85.617 61.047,83.384 62.579,81.77 C 64.111,80.157 66.089,79.35 68.512,79.35 C 70.099,79.35 71.529,79.729 72.803,80.487 C 74.077,81.245 75.048,82.302 75.717,83.658 C 76.385,85.014 76.719,86.552 76.719,88.27 C 76.719,90.012 76.367,91.572 75.664,92.947 C 74.96,94.323 73.964,95.364 72.674,96.071 C 71.384,96.778 69.993,97.132 68.5,97.132 C 66.882,97.132 65.436,96.741 64.162,95.96 C 62.888,95.179 61.923,94.112 61.266,92.76 C 60.609,91.407 60.281,89.977 60.281,88.469 z M 62.625,88.498 C 62.625,90.568 63.182,92.199 64.296,93.391 C 65.41,94.583 66.808,95.178 68.488,95.178 C 70.2,95.178 71.609,94.576 72.716,93.373 C 73.822,92.17 74.375,90.463 74.375,88.252 C 74.375,86.854 74.139,85.633 73.666,84.59 C 73.193,83.547 72.501,82.738 71.59,82.164 C 70.679,81.59 69.657,81.303 68.524,81.303 C 66.914,81.303 65.528,81.856 64.367,82.961 C 63.206,84.066 62.625,85.912 62.625,88.498 z "
   id="path39" />
</g>
<path
   d="M 80.881975,82.813375 L 80.074475,81.388375 L 103.77698,67.707425 L 104.58448,68.182425 L 104.58448,69.132425 L 80.881975,82.813375 z "
   id="polygon41" />
<g
   id="g43"
   transform="matrix(0.95,0,0,0.95,6.853225,4.025125)">
	<path
   d="M 60.281,9.119 C 60.281,6.267 61.047,4.034 62.579,2.42 C 64.111,0.807 66.089,0 68.512,0 C 70.099,0 71.529,0.379 72.803,1.137 C 74.077,1.895 75.048,2.952 75.717,4.308 C 76.385,5.664 76.719,7.202 76.719,8.92 C 76.719,10.662 76.367,12.222 75.664,13.597 C 74.96,14.973 73.964,16.014 72.674,16.721 C 71.384,17.428 69.993,17.782 68.5,17.782 C 66.882,17.782 65.436,17.391 64.162,16.61 C 62.888,15.829 61.923,14.762 61.266,13.41 C 60.609,12.058 60.281,10.627 60.281,9.119 z M 62.625,9.148 C 62.625,11.218 63.182,12.849 64.296,14.041 C 65.41,15.233 66.808,15.828 68.488,15.828 C 70.2,15.828 71.609,15.226 72.716,14.023 C 73.822,12.82 74.375,11.113 74.375,8.902 C 74.375,7.504 74.139,6.283 73.666,5.24 C 73.193,4.197 72.5,3.389 71.59,2.814 C 70.68,2.239 69.657,1.953 68.524,1.953 C 66.914,1.953 65.528,2.506 64.367,3.611 C 63.206,4.716 62.625,6.563 62.625,9.148 z "
   id="path45" />
</g>
<path
   d="M 80.786975,17.689925 L 81.594475,16.264925 L 104.58448,29.564925 L 104.58448,30.467425 L 103.77698,30.942425 L 80.786975,17.689925 z "
   id="polygon47" />
<g
   id="g49"
   transform="matrix(0.95,0,0,0.95,6.853225,4.025125)">
	<path
   d="M 128.981,128.119 C 128.981,125.267 129.747,123.034 131.279,121.42 C 132.811,119.807 134.789,119 137.212,119 C 138.799,119 140.229,119.379 141.503,120.137 C 142.777,120.895 143.749,121.952 144.417,123.308 C 145.085,124.664 145.419,126.202 145.419,127.92 C 145.419,129.662 145.067,131.222 144.364,132.597 C 143.661,133.973 142.664,135.014 141.374,135.721 C 140.085,136.428 138.693,136.782 137.201,136.782 C 135.583,136.782 134.137,136.391 132.863,135.61 C 131.589,134.829 130.624,133.762 129.967,132.41 C 129.309,131.058 128.981,129.627 128.981,128.119 z M 131.325,128.148 C 131.325,130.218 131.882,131.849 132.996,133.041 C 134.11,134.233 135.508,134.828 137.188,134.828 C 138.9,134.828 140.309,134.226 141.416,133.023 C 142.521,131.82 143.074,130.113 143.074,127.902 C 143.074,126.504 142.838,125.283 142.365,124.24 C 141.892,123.197 141.2,122.388 140.289,121.814 C 139.379,121.24 138.357,120.953 137.223,120.953 C 135.613,120.953 134.227,121.506 133.066,122.611 C 131.905,123.716 131.325,125.563 131.325,128.148 z "
   id="path51" />
</g>
<path
   d="M 138.02448,114.96993 L 136.40948,114.96993 L 136.40948,87.514925 L 137.21698,87.039925 L 138.02448,87.514925 L 138.02448,114.96993 z "
   id="polygon53" />
<g
   id="g55"
   transform="matrix(0.95,0,0,0.95,6.853225,4.025125)">
	<path
   d="M 0,37.284 L 0,20.097 L 2.281,20.097 L 2.281,27.16 L 11.172,27.16 L 11.172,20.097 L 13.453,20.097 L 13.453,37.285 L 11.172,37.285 L 11.172,29.19 L 2.281,29.19 L 2.281,37.284 L 0,37.284 z "
   id="path57" />
</g>
<g
   id="g59"
   transform="matrix(0.95,0,0,0.95,6.853225,4.025125)">
	<path
   d="M 14.461,38.378 L 16.039,38.159 C 16.222,39.055 16.531,39.702 16.967,40.097 C 17.404,40.493 17.939,40.691 18.574,40.691 C 19.327,40.691 19.96,40.433 20.473,39.918 C 20.986,39.403 21.242,38.765 21.242,38.004 C 21.242,37.277 21.004,36.679 20.526,36.207 C 20.049,35.736 19.443,35.5 18.707,35.5 C 18.406,35.5 18.032,35.559 17.585,35.676 L 17.762,34.285 C 17.868,34.297 17.953,34.303 18.018,34.303 C 18.692,34.303 19.299,34.127 19.839,33.777 C 20.379,33.426 20.649,32.885 20.649,32.154 C 20.649,31.575 20.452,31.095 20.058,30.716 C 19.664,30.336 19.156,30.146 18.533,30.146 C 17.916,30.146 17.401,30.34 16.99,30.728 C 16.578,31.117 16.314,31.699 16.197,32.474 L 14.619,32.193 C 14.812,31.131 15.253,30.308 15.939,29.724 C 16.625,29.141 17.479,28.849 18.5,28.849 C 19.204,28.849 19.853,28.999 20.445,29.301 C 21.037,29.602 21.49,30.013 21.805,30.533 C 22.118,31.054 22.276,31.606 22.276,32.191 C 22.276,32.747 22.127,33.253 21.828,33.709 C 21.529,34.165 21.087,34.527 20.501,34.797 C 21.263,34.973 21.855,35.337 22.28,35.892 C 22.704,36.445 22.917,37.138 22.917,37.97 C 22.917,39.095 22.506,40.049 21.684,40.831 C 20.862,41.614 19.823,42.005 18.567,42.005 C 17.434,42.005 16.493,41.669 15.745,40.995 C 14.994,40.321 14.567,39.448 14.461,38.378 z "
   id="path61" />
</g>
<g
   id="g63"
   transform="matrix(0.95,0,0,0.95,6.853225,4.025125)">
	<path
   d="M 37.039,31.257 L 39.32,31.831 C 38.844,33.701 37.987,35.127 36.751,36.108 C 35.514,37.09 34.001,37.581 32.214,37.581 C 30.364,37.581 28.86,37.204 27.701,36.449 C 26.542,35.694 25.66,34.602 25.055,33.171 C 24.45,31.74 24.148,30.204 24.148,28.562 C 24.148,26.771 24.489,25.209 25.172,23.876 C 25.855,22.542 26.826,21.53 28.087,20.838 C 29.347,20.146 30.733,19.8 32.247,19.8 C 33.964,19.8 35.407,20.238 36.577,21.114 C 37.748,21.991 38.563,23.223 39.023,24.811 L 36.789,25.338 C 36.391,24.088 35.814,23.178 35.058,22.608 C 34.301,22.038 33.349,21.753 32.203,21.753 C 30.885,21.753 29.783,22.069 28.897,22.702 C 28.012,23.335 27.39,24.184 27.031,25.251 C 26.672,26.318 26.493,27.417 26.493,28.55 C 26.493,30.011 26.705,31.286 27.13,32.376 C 27.555,33.466 28.215,34.28 29.112,34.819 C 30.009,35.358 30.979,35.628 32.024,35.628 C 33.295,35.628 34.37,35.261 35.251,34.526 C 36.132,33.791 36.727,32.702 37.039,31.257 z "
   id="path65" />
</g>
<path
   d="M 48.201975,26.239925 L 47.394475,24.862425 L 62.214475,16.312425 L 63.021975,17.689925 L 48.201975,26.239925 z "
   id="polygon67" />
<g
   id="g69"
   transform="matrix(0.95,0,0,0.95,6.853225,4.025125)">
	<path
   d="M 0,76.984 L 0,59.797 L 2.281,59.797 L 2.281,66.86 L 11.172,66.86 L 11.172,59.797 L 13.453,59.797 L 13.453,76.985 L 11.172,76.985 L 11.172,68.891 L 2.281,68.891 L 2.281,76.985 L 0,76.985 L 0,76.984 z "
   id="path71" />
</g>
<g
   id="g73"
   transform="matrix(0.95,0,0,0.95,6.853225,4.025125)">
	<path
   d="M 14.461,78.078 L 16.039,77.859 C 16.222,78.755 16.531,79.402 16.967,79.797 C 17.404,80.193 17.939,80.391 18.574,80.391 C 19.327,80.391 19.96,80.133 20.473,79.618 C 20.986,79.103 21.242,78.465 21.242,77.704 C 21.242,76.977 21.004,76.379 20.526,75.907 C 20.049,75.436 19.443,75.2 18.707,75.2 C 18.406,75.2 18.032,75.259 17.585,75.376 L 17.762,73.985 C 17.868,73.997 17.953,74.003 18.018,74.003 C 18.692,74.003 19.299,73.827 19.839,73.477 C 20.379,73.126 20.649,72.585 20.649,71.854 C 20.649,71.275 20.452,70.795 20.058,70.416 C 19.664,70.036 19.156,69.846 18.533,69.846 C 17.916,69.846 17.401,70.04 16.99,70.428 C 16.578,70.817 16.314,71.399 16.197,72.174 L 14.619,71.893 C 14.812,70.831 15.253,70.008 15.939,69.424 C 16.625,68.841 17.479,68.549 18.5,68.549 C 19.204,68.549 19.853,68.699 20.445,69.001 C 21.037,69.302 21.49,69.713 21.805,70.233 C 22.118,70.754 22.276,71.306 22.276,71.891 C 22.276,72.447 22.127,72.953 21.828,73.409 C 21.529,73.865 21.087,74.227 20.501,74.497 C 21.263,74.673 21.855,75.037 22.28,75.592 C 22.704,76.145 22.917,76.838 22.917,77.67 C 22.917,78.795 22.506,79.749 21.684,80.531 C 20.862,81.314 19.823,81.705 18.567,81.705 C 17.434,81.705 16.493,81.369 15.745,80.695 C 14.994,80.021 14.567,79.148 14.461,78.078 z "
   id="path75" />
</g>
<g
   id="g77"
   transform="matrix(0.95,0,0,0.95,6.853225,4.025125)">
	<path
   d="M 37.039,70.957 L 39.32,71.531 C 38.844,73.401 37.987,74.827 36.751,75.808 C 35.514,76.79 34.001,77.281 32.214,77.281 C 30.364,77.281 28.86,76.904 27.701,76.149 C 26.542,75.394 25.66,74.302 25.055,72.871 C 24.45,71.44 24.148,69.904 24.148,68.262 C 24.148,66.471 24.489,64.909 25.172,63.576 C 25.855,62.242 26.826,61.23 28.087,60.538 C 29.347,59.846 30.733,59.5 32.247,59.5 C 33.964,59.5 35.407,59.938 36.577,60.814 C 37.748,61.691 38.563,62.923 39.023,64.511 L 36.789,65.038 C 36.391,63.788 35.814,62.878 35.058,62.308 C 34.301,61.738 33.349,61.453 32.203,61.453 C 30.885,61.453 29.783,61.769 28.897,62.402 C 28.012,63.035 27.39,63.884 27.031,64.951 C 26.672,66.018 26.493,67.117 26.493,68.25 C 26.493,69.711 26.705,70.986 27.13,72.076 C 27.555,73.166 28.215,73.98 29.112,74.519 C 30.009,75.058 30.979,75.328 32.024,75.328 C 33.295,75.328 34.37,74.961 35.251,74.226 C 36.132,73.491 36.727,72.402 37.039,70.957 z "
   id="path79" />
</g>
<path
   d="M 48.154475,74.214925 L 48.961975,72.837425 L 63.781975,81.388375 L 62.974475,82.764925 L 48.154475,74.214925 z "
   id="polygon81" />
<g
   id="g83"
   transform="matrix(0.95,0,0,0.95,6.853225,4.025125)">
	<path
   d="M 68.75,156.284 L 68.75,139.096 L 71.031,139.096 L 71.031,146.159 L 79.922,146.159 L 79.922,139.096 L 82.203,139.096 L 82.203,156.284 L 79.922,156.284 L 79.922,148.19 L 71.031,148.19 L 71.031,156.284 L 68.75,156.284 z "
   id="path85" />
</g>
<g
   id="g87"
   transform="matrix(0.95,0,0,0.95,6.853225,4.025125)">
	<path
   d="M 83.211,157.378 L 84.789,157.159 C 84.972,158.055 85.281,158.702 85.717,159.097 C 86.154,159.493 86.689,159.691 87.324,159.691 C 88.077,159.691 88.71,159.433 89.223,158.918 C 89.736,158.403 89.992,157.765 89.992,157.004 C 89.992,156.277 89.754,155.679 89.276,155.207 C 88.799,154.736 88.193,154.5 87.457,154.5 C 87.156,154.5 86.782,154.559 86.335,154.676 L 86.512,153.285 C 86.618,153.297 86.703,153.303 86.768,153.303 C 87.442,153.303 88.049,153.127 88.589,152.777 C 89.129,152.426 89.399,151.885 89.399,151.154 C 89.399,150.575 89.202,150.095 88.808,149.716 C 88.414,149.336 87.906,149.146 87.283,149.146 C 86.666,149.146 86.151,149.34 85.74,149.728 C 85.328,150.117 85.064,150.699 84.947,151.474 L 83.369,151.193 C 83.562,150.131 84.003,149.308 84.689,148.724 C 85.375,148.141 86.229,147.849 87.25,147.849 C 87.954,147.849 88.603,147.999 89.195,148.301 C 89.787,148.602 90.24,149.013 90.555,149.533 C 90.868,150.054 91.026,150.606 91.026,151.191 C 91.026,151.747 90.877,152.253 90.578,152.709 C 90.279,153.165 89.837,153.527 89.251,153.797 C 90.013,153.973 90.605,154.337 91.03,154.892 C 91.454,155.445 91.667,156.138 91.667,156.97 C 91.667,158.095 91.256,159.049 90.434,159.831 C 89.612,160.614 88.573,161.005 87.317,161.005 C 86.184,161.005 85.243,160.669 84.495,159.995 C 83.744,159.321 83.317,158.448 83.211,157.378 z "
   id="path89" />
</g>
<g
   id="g91"
   transform="matrix(0.95,0,0,0.95,6.853225,4.025125)">
	<path
   d="M 105.789,150.257 L 108.07,150.831 C 107.594,152.701 106.737,154.127 105.501,155.108 C 104.264,156.09 102.751,156.581 100.964,156.581 C 99.114,156.581 97.61,156.204 96.451,155.449 C 95.292,154.694 94.41,153.602 93.805,152.171 C 93.2,150.74 92.898,149.204 92.898,147.562 C 92.898,145.771 93.239,144.209 93.922,142.876 C 94.605,141.542 95.576,140.53 96.837,139.838 C 98.097,139.146 99.483,138.8 100.997,138.8 C 102.714,138.8 104.157,139.238 105.327,140.114 C 106.498,140.991 107.313,142.223 107.773,143.811 L 105.539,144.338 C 105.141,143.088 104.564,142.178 103.808,141.608 C 103.051,141.038 102.099,140.753 100.953,140.753 C 99.635,140.753 98.533,141.069 97.647,141.702 C 96.762,142.335 96.14,143.184 95.781,144.251 C 95.422,145.318 95.243,146.417 95.243,147.55 C 95.243,149.011 95.455,150.286 95.88,151.376 C 96.305,152.466 96.965,153.28 97.862,153.819 C 98.759,154.358 99.729,154.628 100.774,154.628 C 102.045,154.628 103.12,154.261 104.001,153.526 C 104.882,152.791 105.477,151.702 105.789,150.257 z "
   id="path93" />
</g>
<path
   d="M 113.56198,139.28992 L 112.75448,137.91243 L 127.52698,129.36243 L 128.33448,130.73993 L 113.56198,139.28992 z "
   id="polygon95" />
</svg>